<svg
        width="20"
        height="20"
        viewBox="0 0 20 20"
        fill="none"
        xmlns="http://www.w3.org/2000/svg"
      >
        <path
          d="M14.1665 2.49999C14.3854 2.28112 14.6452 2.1075 14.9312 1.98905C15.2171 1.8706 15.5236 1.80963 15.8332 1.80963C16.1427 1.80963 16.4492 1.8706 16.7352 1.98905C17.0211 2.1075 17.281 2.28112 17.4998 2.49999C17.7187 2.71886 17.8923 2.97869 18.0108 3.26466C18.1292 3.55063 18.1902 3.85713 18.1902 4.16665C18.1902 4.47618 18.1292 4.78268 18.0108 5.06865C17.8923 5.35461 17.7187 5.61445 17.4998 5.83332L6.24984 17.0833L1.6665 18.3333L2.9165 13.75L14.1665 2.49999Z"
          stroke="#737B7D"
          stroke-width="1.5"
          stroke-linecap="round"
          stroke-linejoin="round"
        />
      </svg>
